<mxfile host="app.diagrams.net" agent="Mozilla/5.0 (Windows NT 10.0; Win64; x64) AppleWebKit/537.36 (KHTML, like Gecko) Chrome/130.0.0.0 Safari/537.36" version="24.8.3">
  <diagram name="Page-1" id="TO6kB4z5MBMpsq3OqiZG">
    <mxGraphModel dx="1050" dy="557" grid="1" gridSize="10" guides="1" tooltips="1" connect="1" arrows="1" fold="1" page="1" pageScale="1" pageWidth="850" pageHeight="1100" math="0" shadow="0">
      <root>
        <mxCell id="0" />
        <mxCell id="1" parent="0" />
        <mxCell id="8WxK2-NWpz1wvriiN8iH-17" value="" style="rounded=0;whiteSpace=wrap;html=1;" vertex="1" parent="1">
          <mxGeometry x="200" y="20" width="760" height="660" as="geometry" />
        </mxCell>
        <mxCell id="ds1MS7w25QjL1ORueq1j-7" style="edgeStyle=orthogonalEdgeStyle;rounded=0;orthogonalLoop=1;jettySize=auto;html=1;curved=0;" parent="1" edge="1">
          <mxGeometry relative="1" as="geometry">
            <Array as="points">
              <mxPoint x="505.5" y="290" />
              <mxPoint x="505.5" y="290" />
            </Array>
            <mxPoint x="415" y="290" as="sourcePoint" />
            <mxPoint x="655" y="290" as="targetPoint" />
          </mxGeometry>
        </mxCell>
        <mxCell id="ds1MS7w25QjL1ORueq1j-1" value="Frontend" style="shape=umlLifeline;perimeter=lifelinePerimeter;whiteSpace=wrap;html=1;container=1;dropTarget=0;collapsible=0;recursiveResize=0;outlineConnect=0;portConstraint=eastwest;newEdgeStyle={&quot;curved&quot;:0,&quot;rounded&quot;:0};" parent="1" vertex="1">
          <mxGeometry x="370" y="110" width="100" height="550" as="geometry" />
        </mxCell>
        <mxCell id="ds1MS7w25QjL1ORueq1j-14" style="edgeStyle=orthogonalEdgeStyle;rounded=0;orthogonalLoop=1;jettySize=auto;html=1;curved=0;" parent="1" edge="1">
          <mxGeometry relative="1" as="geometry">
            <Array as="points">
              <mxPoint x="730.5" y="440" />
              <mxPoint x="730.5" y="440" />
            </Array>
            <mxPoint x="660" y="440" as="sourcePoint" />
            <mxPoint x="870" y="440" as="targetPoint" />
          </mxGeometry>
        </mxCell>
        <mxCell id="ds1MS7w25QjL1ORueq1j-2" value="Backend" style="shape=umlLifeline;perimeter=lifelinePerimeter;whiteSpace=wrap;html=1;container=1;dropTarget=0;collapsible=0;recursiveResize=0;outlineConnect=0;portConstraint=eastwest;newEdgeStyle={&quot;curved&quot;:0,&quot;rounded&quot;:0};" parent="1" vertex="1">
          <mxGeometry x="610" y="110" width="100" height="560" as="geometry" />
        </mxCell>
        <mxCell id="ds1MS7w25QjL1ORueq1j-3" value="Database" style="shape=umlLifeline;perimeter=lifelinePerimeter;whiteSpace=wrap;html=1;container=1;dropTarget=0;collapsible=0;recursiveResize=0;outlineConnect=0;portConstraint=eastwest;newEdgeStyle={&quot;curved&quot;:0,&quot;rounded&quot;:0};" parent="1" vertex="1">
          <mxGeometry x="820" y="110" width="100" height="570" as="geometry" />
        </mxCell>
        <mxCell id="ds1MS7w25QjL1ORueq1j-4" value="User" style="shape=umlActor;verticalLabelPosition=bottom;verticalAlign=top;html=1;" parent="1" vertex="1">
          <mxGeometry x="230" y="177.5" width="30" height="60" as="geometry" />
        </mxCell>
        <mxCell id="ds1MS7w25QjL1ORueq1j-6" style="rounded=0;orthogonalLoop=1;jettySize=auto;html=1;" parent="1" source="ds1MS7w25QjL1ORueq1j-8" target="ds1MS7w25QjL1ORueq1j-1" edge="1">
          <mxGeometry relative="1" as="geometry">
            <mxPoint x="320" y="225" as="sourcePoint" />
          </mxGeometry>
        </mxCell>
        <mxCell id="ds1MS7w25QjL1ORueq1j-11" style="edgeStyle=orthogonalEdgeStyle;rounded=0;orthogonalLoop=1;jettySize=auto;html=1;curved=0;" parent="1" edge="1">
          <mxGeometry relative="1" as="geometry">
            <mxPoint x="659.5" y="345" as="sourcePoint" />
            <mxPoint x="659.5" y="365" as="targetPoint" />
            <Array as="points">
              <mxPoint x="620" y="335" />
            </Array>
          </mxGeometry>
        </mxCell>
        <mxCell id="ds1MS7w25QjL1ORueq1j-13" value="authenticate token" style="html=1;whiteSpace=wrap;" parent="1" vertex="1">
          <mxGeometry x="500" y="330" width="110" height="40" as="geometry" />
        </mxCell>
        <mxCell id="ds1MS7w25QjL1ORueq1j-20" value="response" style="html=1;whiteSpace=wrap;" parent="1" vertex="1">
          <mxGeometry x="710" y="470" width="110" height="30" as="geometry" />
        </mxCell>
        <mxCell id="iVlFPtmmlEYchxga2JXQ-9" style="edgeStyle=orthogonalEdgeStyle;rounded=0;orthogonalLoop=1;jettySize=auto;html=1;curved=0;" parent="1" edge="1">
          <mxGeometry relative="1" as="geometry">
            <mxPoint x="870" y="514.5" as="sourcePoint" />
            <mxPoint x="660" y="514.5" as="targetPoint" />
            <Array as="points">
              <mxPoint x="830.5" y="514.5" />
              <mxPoint x="830.5" y="514.5" />
            </Array>
          </mxGeometry>
        </mxCell>
        <mxCell id="B1_j8ZbPT3PzYgEqwr39-2" value="" style="image;aspect=fixed;html=1;points=[];align=center;fontSize=12;image=img/lib/azure2/general/Browser.svg;" parent="1" vertex="1">
          <mxGeometry x="387.5" y="50" width="65" height="52" as="geometry" />
        </mxCell>
        <mxCell id="B1_j8ZbPT3PzYgEqwr39-3" value="" style="image;aspect=fixed;perimeter=ellipsePerimeter;html=1;align=center;shadow=0;dashed=0;fontColor=#4277BB;labelBackgroundColor=default;fontSize=12;spacingTop=3;image=img/lib/ibm/infrastructure/mobile_backend.svg;" parent="1" vertex="1">
          <mxGeometry x="630" y="40" width="62" height="62" as="geometry" />
        </mxCell>
        <mxCell id="B1_j8ZbPT3PzYgEqwr39-4" value="" style="sketch=0;points=[[0,0,0],[0.25,0,0],[0.5,0,0],[0.75,0,0],[1,0,0],[0,1,0],[0.25,1,0],[0.5,1,0],[0.75,1,0],[1,1,0],[0,0.25,0],[0,0.5,0],[0,0.75,0],[1,0.25,0],[1,0.5,0],[1,0.75,0]];outlineConnect=0;fontColor=#232F3E;fillColor=#C925D1;strokeColor=#ffffff;dashed=0;verticalLabelPosition=bottom;verticalAlign=top;align=center;html=1;fontSize=12;fontStyle=0;aspect=fixed;shape=mxgraph.aws4.resourceIcon;resIcon=mxgraph.aws4.documentdb_with_mongodb_compatibility;" parent="1" vertex="1">
          <mxGeometry x="840.5" y="41.5" width="59" height="59" as="geometry" />
        </mxCell>
        <mxCell id="ds1MS7w25QjL1ORueq1j-8" value="click delete" style="html=1;whiteSpace=wrap;" parent="1" vertex="1">
          <mxGeometry x="277.5" y="190" width="110" height="35" as="geometry" />
        </mxCell>
        <mxCell id="CODazpXLHY-GL3RTQAhL-22" value="" style="endArrow=classic;html=1;rounded=0;" parent="1" edge="1">
          <mxGeometry width="50" height="50" relative="1" as="geometry">
            <mxPoint x="650.25" y="550" as="sourcePoint" />
            <mxPoint x="425" y="550" as="targetPoint" />
          </mxGeometry>
        </mxCell>
        <mxCell id="CODazpXLHY-GL3RTQAhL-23" value="response" style="html=1;whiteSpace=wrap;" parent="1" vertex="1">
          <mxGeometry x="500" y="510" width="110" height="30" as="geometry" />
        </mxCell>
        <mxCell id="DxxqK-J1NwxKRJ_Hc7Qy-6" style="edgeStyle=orthogonalEdgeStyle;rounded=0;orthogonalLoop=1;jettySize=auto;html=1;curved=0;" parent="1" edge="1">
          <mxGeometry relative="1" as="geometry">
            <mxPoint x="419.5" y="579.95" as="sourcePoint" />
            <mxPoint x="419.5" y="599.95" as="targetPoint" />
            <Array as="points">
              <mxPoint x="380" y="569.95" />
            </Array>
          </mxGeometry>
        </mxCell>
        <mxCell id="DxxqK-J1NwxKRJ_Hc7Qy-7" value="show alert" style="html=1;whiteSpace=wrap;" parent="1" vertex="1">
          <mxGeometry x="260" y="570" width="110" height="40" as="geometry" />
        </mxCell>
        <mxCell id="8WxK2-NWpz1wvriiN8iH-1" value="access token, widget id" style="html=1;whiteSpace=wrap;" vertex="1" parent="1">
          <mxGeometry x="470" y="250" width="130" height="30" as="geometry" />
        </mxCell>
        <mxCell id="8WxK2-NWpz1wvriiN8iH-2" value="find and update isDeleted as true" style="html=1;whiteSpace=wrap;" vertex="1" parent="1">
          <mxGeometry x="700" y="400" width="130" height="33.5" as="geometry" />
        </mxCell>
      </root>
    </mxGraphModel>
  </diagram>
</mxfile>
